<?xml version="1.0" encoding="UTF-8" standalone="no"?>
<!-- Generator: Adobe Illustrator 15.0.2, SVG Export Plug-In . SVG Version: 6.00 Build 0)  -->

<svg
   xmlns:dc="http://purl.org/dc/elements/1.1/"
   xmlns:cc="http://creativecommons.org/ns#"
   xmlns:rdf="http://www.w3.org/1999/02/22-rdf-syntax-ns#"
   xmlns:svg="http://www.w3.org/2000/svg"
   xmlns="http://www.w3.org/2000/svg"
   xmlns:xlink="http://www.w3.org/1999/xlink"
   xmlns:sodipodi="http://sodipodi.sourceforge.net/DTD/sodipodi-0.dtd"
   xmlns:inkscape="http://www.inkscape.org/namespaces/inkscape"
   version="1.0"
   id="svg5692"
   sodipodi:docname="ExtractPart.svg"
   inkscape:version="0.48.3.1 r9886"
   inkscape:export-filename="/data/dev/python/qgis_plugins/DigitizingTools/tools/icons/cutter.png"
   inkscape:export-xdpi="90"
   inkscape:export-ydpi="90"
   x="0px"
   y="0px"
   width="24px"
   height="24px"
   viewBox="0 0 24 24"
   enable-background="new 0 0 24 24"
   xml:space="preserve"><metadata
   id="metadata29499"><rdf:RDF><cc:Work
       rdf:about=""><dc:format>image/svg+xml</dc:format><dc:type
         rdf:resource="http://purl.org/dc/dcmitype/StillImage" /><dc:title></dc:title></cc:Work></rdf:RDF></metadata><defs
   id="defs29497"><linearGradient
     id="linearGradient35709"><stop
       style="stop-color:#ffffff;stop-opacity:1;"
       offset="0"
       id="stop35711" /><stop
       style="stop-color:#a5a5a5;stop-opacity:1;"
       offset="1"
       id="stop35713" /></linearGradient><linearGradient
     id="linearGradient30991"><stop
       style="stop-color:#8cbe8c;stop-opacity:1;"
       offset="0"
       id="stop30993" /><stop
       id="stop30999"
       offset="1"
       style="stop-color:#bfdabf;stop-opacity:0.49803922;" /></linearGradient><linearGradient
     inkscape:collect="always"
     xlink:href="#linearGradient2983"
     id="linearGradient2989"
     x1="4.5"
     y1="3.5"
     x2="6.5"
     y2="10.5"
     gradientUnits="userSpaceOnUse" /><linearGradient
     id="linearGradient2983"><stop
       id="stop30905"
       offset="0"
       style="stop-color:#eeeeee;stop-opacity:1;" /><stop
       style="stop-color:#cfcfcf;stop-opacity:1;"
       offset="1"
       id="stop2987" /></linearGradient><linearGradient
     gradientTransform="matrix(1.4000598,0,0,1.4000598,0.79952153,-2.3051692)"
     y2="10.5"
     x2="6.5"
     y1="3.5"
     x1="4.5"
     gradientUnits="userSpaceOnUse"
     id="linearGradient29554"
     xlink:href="#linearGradient2983"
     inkscape:collect="always" /><linearGradient
     y2="5"
     x2="4"
     y1="8.5"
     x1="10.5"
     gradientUnits="userSpaceOnUse"
     id="linearGradient9261"
     xlink:href="#linearGradient30849"
     inkscape:collect="always"
     gradientTransform="matrix(1.999995,0,0,1.999995,0.44203719,-15.919801)" /><linearGradient
     id="linearGradient30849"><stop
       style="stop-color:#8cbe8c;stop-opacity:1;"
       offset="0"
       id="stop30851" /><stop
       style="stop-color:#a1daa1;stop-opacity:1;"
       offset="1"
       id="stop30853" /></linearGradient><linearGradient
     inkscape:collect="always"
     xlink:href="#linearGradient30991"
     id="linearGradient30997"
     x1="4.3497461"
     y1="5.7457628"
     x2="13.34517"
     y2="5.7457628"
     gradientUnits="userSpaceOnUse" /><linearGradient
     y2="5"
     x2="4"
     y1="8.5"
     x1="10.5"
     gradientUnits="userSpaceOnUse"
     id="linearGradient9261-6"
     xlink:href="#linearGradient30849-5"
     inkscape:collect="always"
     gradientTransform="matrix(1.999995,0,0,1.999995,0.44203719,-15.919801)" /><linearGradient
     id="linearGradient30849-5"><stop
       style="stop-color:#eeeeee;stop-opacity:1;"
       offset="0"
       id="stop30851-6" /><stop
       style="stop-color:#cfcfcc;stop-opacity:1;"
       offset="1"
       id="stop30853-5" /></linearGradient><linearGradient
     y2="5"
     x2="4"
     y1="8.5"
     x1="10.5"
     gradientTransform="matrix(1.0343407,0,0,1.0343407,0.85402317,0.46125142)"
     gradientUnits="userSpaceOnUse"
     id="linearGradient37797-1"
     xlink:href="#linearGradient30849-5-1"
     inkscape:collect="always" /><linearGradient
     id="linearGradient30849-5-1"><stop
       style="stop-color:#8cbe8c;stop-opacity:1;"
       offset="0"
       id="stop30851-6-2" /><stop
       style="stop-color:#bfdabf;stop-opacity:1;"
       offset="1"
       id="stop30853-5-0" /></linearGradient><linearGradient
     y2="5"
     x2="4"
     y1="8.5"
     x1="10.5"
     gradientTransform="matrix(1.0343407,0,0,1.0343407,0.85402317,0.46125142)"
     gradientUnits="userSpaceOnUse"
     id="linearGradient37797"
     xlink:href="#linearGradient30849-5-4"
     inkscape:collect="always" /><linearGradient
     id="linearGradient30849-5-4"><stop
       style="stop-color:#eeeeee;stop-opacity:1;"
       offset="0"
       id="stop30851-6-24" /><stop
       style="stop-color:#cfcfcc;stop-opacity:1;"
       offset="1"
       id="stop30853-5-1" /></linearGradient><linearGradient
     y2="5"
     x2="4"
     y1="8.5"
     x1="10.5"
     gradientTransform="matrix(1.0343407,0,0,1.0343407,0.85443856,0.46128054)"
     gradientUnits="userSpaceOnUse"
     id="linearGradient32101"
     xlink:href="#linearGradient30849-5-4"
     inkscape:collect="always" /></defs><sodipodi:namedview
   pagecolor="#ffffff"
   bordercolor="#666666"
   borderopacity="1"
   objecttolerance="10"
   gridtolerance="10"
   guidetolerance="10"
   inkscape:pageopacity="0"
   inkscape:pageshadow="2"
   inkscape:window-width="1920"
   inkscape:window-height="1030"
   id="namedview29495"
   showgrid="false"
   inkscape:zoom="13.906434"
   inkscape:cx="6.7253305"
   inkscape:cy="11.59322"
   inkscape:window-x="0"
   inkscape:window-y="27"
   inkscape:window-maximized="1"
   inkscape:current-layer="layer8" />
<g
   id="layer8"
   inkscape:groupmode="layer"
   inkscape:label="main">
	<linearGradient
   id="path6995-2_1_"
   gradientUnits="userSpaceOnUse"
   x1="3.0864"
   y1="14.0254"
   x2="20.9115"
   y2="10.8823">
		<stop
   offset="0"
   style="stop-color:#C8E6FA"
   id="stop29453" />
		<stop
   offset="0.2857"
   style="stop-color:#B7DDF6"
   id="stop29455" />
		<stop
   offset="0.8515"
   style="stop-color:#8AC7EB"
   id="stop29457" />
		<stop
   offset="1"
   style="stop-color:#7DC1E8"
   id="stop29459" />
	</linearGradient>
	
		
	
		
	
		
	
		
	
		
	
		
<path
   inkscape:export-ydpi="90"
   inkscape:export-xdpi="90"
   inkscape:export-filename="e:\Program Files\QGIS-Dev\themes\gis\path3420.png"
   style="fill:url(#linearGradient32101);fill-opacity:1;fill-rule:evenodd;stroke:#555753;stroke-width:1;stroke-linecap:round;stroke-linejoin:round;stroke-miterlimit:4;stroke-opacity:1;stroke-dasharray:none;display:inline;enable-background:new"
   d="M 1.3690805,5.4483485 C 3.0369055,0.44487754 8.6637765,0.14041054 13.3908,2.1037905 c 5.562073,2.310218 6.596414,-0.792805 8.665095,1.275877 1.139105,1.139105 1.285274,1.535164 1.110612,4.078482 -1.478502,8.0575265 -4.440491,2.220197 -8.923742,2.16867 C 9.7486675,9.5468395 9.5680615,10.306586 7.5751245,11.654392 2.9261455,14.722445 0.33473956,8.5513705 1.3690805,5.4483485 z"
   id="path3112-8"
   sodipodi:nodetypes="ssscccs"
   inkscape:connector-curvature="0" /><g
   id="g29490"><path
     style="fill:#c4a000"
     inkscape:connector-curvature="0"
     id="rect2730"
     inkscape:export-xdpi="120"
     inkscape:export-ydpi="120"
     d="m 15.012,13 h 6.977 C 23.1,13 24,13.9 24,15.012 v 6.977 C 24,23.1 23.1,24 21.988,24 H 15.011 C 13.9,24 13,23.1 13,21.988 V 15.011 C 13,13.9 13.9,13 15.012,13 z" /><path
     style="fill:#fcffff"
     inkscape:connector-curvature="0"
     id="rect3812"
     d="m 18,14 v 2.062 c -0.537,0.111 -1.024,0.383 -1.375,0.781 l -1.781,-1.031 -0.5,0.875 1.781,1.031 C 16.043,17.967 16,18.225 16,18.5 c 0,0.275 0.043,0.533 0.125,0.781 l -1.781,1.031 0.5,0.875 1.781,-1.031 c 0.353,0.4 0.832,0.67 1.375,0.781 V 23 h 1 v -2.062 c 0.537,-0.111 1.024,-0.383 1.375,-0.781 l 1.781,1.031 0.5,-0.875 -1.781,-1.031 C 20.957,19.033 21,18.775 21,18.5 21,18.225 20.957,17.967 20.875,17.719 l 1.781,-1.031 -0.5,-0.875 -1.781,1.031 C 20.022,16.444 19.543,16.174 19,16.063 V 14 h -1 z m 0.5,3.5 c 0.552,0 1,0.448 1,1 0,0.552 -0.448,1 -1,1 -0.552,0 -1,-0.448 -1,-1 0,-0.552 0.448,-1 1,-1 z" /><path
     style="opacity:0.3;fill:#fcffff"
     inkscape:connector-curvature="0"
     id="path4133"
     sodipodi:nodetypes="ccsssc"
     enable-background="new    "
     d="m 14,19 9,-0.01 c 0,0 0,0 0,-2 C 23,14 22,14 18.5,14 15,14 14,14 14,17 c 0,2 0,2 0,2 z" /></g><g
   transform="matrix(0.86428137,-0.23158348,0.23158348,0.86428137,-2.5784189,5.8702333)"
   style="display:inline;enable-background:new"
   id="g10258"><path
     style="fill:#e6e6e6;fill-opacity:1;fill-rule:evenodd;stroke:#505050;stroke-width:0.75;stroke-linecap:butt;stroke-linejoin:round;stroke-miterlimit:4;stroke-opacity:1;stroke-dasharray:none;stroke-dashoffset:0;marker:none;visibility:visible;display:inline;overflow:visible;enable-background:accumulate"
     d="M 18.063889,14.189917 5.8506906,7.0020986 2.0740409,5.4488001 12.551198,13.337125 c 0,0 3.806898,0.05073 4.507615,3.106599 -0.121829,-0.791878 -0.152284,-2.101523 1.005076,-2.253807 z"
     id="path5731"
     sodipodi:nodetypes="cccccc"
     inkscape:connector-curvature="0" /><path
     sodipodi:type="arc"
     style="fill:none;stroke:#a00000;stroke-width:1.41145039;stroke-linecap:butt;stroke-linejoin:round;stroke-miterlimit:4;stroke-opacity:1;stroke-dasharray:none;stroke-dashoffset:0;marker:none;visibility:visible;display:inline;overflow:visible;enable-background:accumulate"
     id="path5719"
     sodipodi:cx="7.0964465"
     sodipodi:cy="18.121828"
     sodipodi:rx="2.2842638"
     sodipodi:ry="2.2233503"
     d="m 9.3807104,18.121828 c 0,1.227923 -1.0226998,2.22335 -2.2842639,2.22335 -1.2615641,0 -2.2842638,-0.995427 -2.2842638,-2.22335 0,-1.227922 1.0226997,-2.22335 2.2842638,-2.22335 1.2615641,0 2.2842639,0.995428 2.2842639,2.22335 z"
     transform="matrix(-1.161428,-0.7817194,0.4504495,-0.6692485,20.01016,34.55825)" /><path
     style="fill:#e6e6e6;fill-opacity:1;fill-rule:evenodd;stroke:#505050;stroke-width:0.75;stroke-linecap:butt;stroke-linejoin:round;stroke-miterlimit:4;stroke-opacity:1;stroke-dasharray:none;stroke-dashoffset:0;marker:none;visibility:visible;display:inline;overflow:visible;enable-background:accumulate"
     d="M 10.78125,5.90625 9.71875,8.09375 10.59375,13 14.125,16.40625 c 0.04977,-0.540459 0.30324,-1.185694 0.46875,-1.03125 l -2.3125,-4 -1.5,-5.46875 z"
     transform="matrix(0.25881904,-0.96592583,0.96592583,0.25881904,-1.8777128,20.501649)"
     id="path5733"
     inkscape:connector-curvature="0" /><path
     transform="matrix(-1.3522963,0.3623467,-0.2087947,-0.7792324,33.555008,21.031537)"
     d="m 9.3807104,18.121828 c 0,1.227923 -1.0226998,2.22335 -2.2842639,2.22335 -1.2615641,0 -2.2842638,-0.995427 -2.2842638,-2.22335 0,-1.227922 1.0226997,-2.22335 2.2842638,-2.22335 1.2615641,0 2.2842639,0.995428 2.2842639,2.22335 z"
     sodipodi:ry="2.2233503"
     sodipodi:rx="2.2842638"
     sodipodi:cy="18.121828"
     sodipodi:cx="7.0964465"
     id="path5729"
     style="fill:none;stroke:#a00000;stroke-width:1.41145039;stroke-linecap:butt;stroke-linejoin:round;stroke-miterlimit:4;stroke-opacity:1;stroke-dasharray:none;stroke-dashoffset:0;marker:none;visibility:visible;display:inline;overflow:visible;enable-background:accumulate"
     sodipodi:type="arc" /><path
     sodipodi:type="arc"
     style="fill:#e6e6e6;fill-opacity:1;fill-rule:evenodd;stroke:#969696;stroke-width:0.75;stroke-linecap:butt;stroke-linejoin:round;stroke-miterlimit:4;stroke-opacity:1;stroke-dasharray:none;stroke-dashoffset:0;marker:none;visibility:visible;display:inline;overflow:visible;enable-background:accumulate"
     id="path5735"
     sodipodi:cx="12.517767"
     sodipodi:cy="12.502538"
     sodipodi:rx="0.48730963"
     sodipodi:ry="0.50253808"
     d="m 13.005077,12.502538 c 0,0.277544 -0.218176,0.502538 -0.48731,0.502538 -0.269134,0 -0.48731,-0.224994 -0.48731,-0.502538 0,-0.277544 0.218176,-0.502538 0.48731,-0.502538 0.269134,0 0.48731,0.224994 0.48731,0.502538 z" /><path
     style="opacity:0.6;fill:none;stroke:#fcffff;stroke-width:0.80000001;stroke-linecap:round;stroke-linejoin:round;stroke-miterlimit:4;stroke-opacity:1;stroke-dasharray:none;stroke-dashoffset:0;marker:none;visibility:visible;display:inline;overflow:visible;enable-background:accumulate"
     d="m 16.994924,15.959391 c 0.182741,-0.791878 0.791878,-1.796954 1.979695,-1.492386"
     id="path5737"
     inkscape:connector-curvature="0" /><path
     id="path5739"
     d="M 17.116752,10.324873 C 16.568528,9.4720815 17.847716,8.1319801 19.279188,7.7664974"
     style="opacity:0.7;fill:none;stroke:#fcffff;stroke-width:0.80000001;stroke-linecap:round;stroke-linejoin:round;stroke-miterlimit:4;stroke-opacity:1;stroke-dasharray:none;stroke-dashoffset:0;marker:none;visibility:visible;display:inline;overflow:visible;enable-background:accumulate"
     sodipodi:nodetypes="cc"
     inkscape:connector-curvature="0" /></g><path
   inkscape:export-ydpi="90"
   inkscape:export-xdpi="90"
   inkscape:export-filename="e:\Program Files\QGIS-Dev\themes\gis\path3420.png"
   style="fill:#8ebf8e;fill-opacity:1;fill-rule:evenodd;stroke:#555753;stroke-width:1.3107444;stroke-linecap:square;stroke-linejoin:round;stroke-miterlimit:4;stroke-opacity:1;stroke-dasharray:none;stroke-dashoffset:0;display:inline;enable-background:new"
   d="m 1.6627288,19.669691 c 1.0701558,-2.374973 3.5116514,-5.245036 6.6965492,-5.886563 2.509983,-0.04834 3.477397,3.831109 1.964212,7.771121 -0.706743,1.065137 -1.6772289,1.230839 -3.7919379,1.469933 -1.7149689,0.193898 -5.6581427,-0.01402 -4.8688233,-3.354491 z"
   id="path3112-1"
   sodipodi:nodetypes="cccsc"
   inkscape:connector-curvature="0" /></g>


</svg>