<?xml version="1.0" encoding="UTF-8" standalone="no"?>
<!-- Generator: Adobe Illustrator 15.0.2, SVG Export Plug-In . SVG Version: 6.00 Build 0)  -->

<svg
   xmlns:dc="http://purl.org/dc/elements/1.1/"
   xmlns:cc="http://creativecommons.org/ns#"
   xmlns:rdf="http://www.w3.org/1999/02/22-rdf-syntax-ns#"
   xmlns:svg="http://www.w3.org/2000/svg"
   xmlns="http://www.w3.org/2000/svg"
   xmlns:xlink="http://www.w3.org/1999/xlink"
   xmlns:sodipodi="http://sodipodi.sourceforge.net/DTD/sodipodi-0.dtd"
   xmlns:inkscape="http://www.inkscape.org/namespaces/inkscape"
   version="1.0"
   id="svg5692"
   sodipodi:docname="fillRingBatch.svg"
   inkscape:version="0.48.3.1 r9886"
   inkscape:export-filename="/data/dev/python/qgis_plugins/DigitizingTools/tools/icons/fillRingBatch.png"
   inkscape:export-xdpi="90"
   inkscape:export-ydpi="90"
   x="0px"
   y="0px"
   width="24px"
   height="24px"
   viewBox="0 0 24 24"
   enable-background="new 0 0 24 24"
   xml:space="preserve"><metadata
   id="metadata29499"><rdf:RDF><cc:Work
       rdf:about=""><dc:format>image/svg+xml</dc:format><dc:type
         rdf:resource="http://purl.org/dc/dcmitype/StillImage" /><dc:title></dc:title></cc:Work></rdf:RDF></metadata><defs
   id="defs29497"><linearGradient
     id="linearGradient30991"><stop
       style="stop-color:#8cbe8c;stop-opacity:1;"
       offset="0"
       id="stop30993" /><stop
       id="stop30999"
       offset="1"
       style="stop-color:#bfdabf;stop-opacity:0.49803922;" /></linearGradient><linearGradient
     inkscape:collect="always"
     xlink:href="#linearGradient2983"
     id="linearGradient2989"
     x1="4.5"
     y1="3.5"
     x2="6.5"
     y2="10.5"
     gradientUnits="userSpaceOnUse" /><linearGradient
     id="linearGradient2983"><stop
       id="stop30905"
       offset="0"
       style="stop-color:#eeeeee;stop-opacity:1;" /><stop
       style="stop-color:#cfcfcf;stop-opacity:1;"
       offset="1"
       id="stop2987" /></linearGradient><linearGradient
     gradientTransform="matrix(1.4000598,0,0,1.4000598,0.79952153,-2.3051692)"
     y2="10.5"
     x2="6.5"
     y1="3.5"
     x1="4.5"
     gradientUnits="userSpaceOnUse"
     id="linearGradient29554"
     xlink:href="#linearGradient2983"
     inkscape:collect="always" /><linearGradient
     y2="5"
     x2="4"
     y1="8.5"
     x1="10.5"
     gradientUnits="userSpaceOnUse"
     id="linearGradient9261"
     xlink:href="#linearGradient30849"
     inkscape:collect="always"
     gradientTransform="matrix(1.999995,0,0,1.999995,0.44203719,-15.919801)" /><linearGradient
     id="linearGradient30849"><stop
       style="stop-color:#8cbe8c;stop-opacity:1;"
       offset="0"
       id="stop30851" /><stop
       style="stop-color:#a1daa1;stop-opacity:1;"
       offset="1"
       id="stop30853" /></linearGradient><linearGradient
     inkscape:collect="always"
     xlink:href="#linearGradient30991"
     id="linearGradient30997"
     x1="4.3497461"
     y1="5.7457628"
     x2="13.34517"
     y2="5.7457628"
     gradientUnits="userSpaceOnUse" /><linearGradient
     y2="5"
     x2="4"
     y1="8.5"
     x1="10.5"
     gradientUnits="userSpaceOnUse"
     id="linearGradient9261-6"
     xlink:href="#linearGradient30849-5"
     inkscape:collect="always"
     gradientTransform="matrix(1.999995,0,0,1.999995,0.44203719,-15.919801)" /><linearGradient
     id="linearGradient30849-5"><stop
       style="stop-color:#eeeeee;stop-opacity:1;"
       offset="0"
       id="stop30851-6" /><stop
       style="stop-color:#cfcfcc;stop-opacity:1;"
       offset="1"
       id="stop30853-5" /></linearGradient><linearGradient
     y2="5"
     x2="4"
     y1="8.5"
     x1="10.5"
     gradientTransform="matrix(1.0343407,0,0,1.0343407,0.85402317,0.46125142)"
     gradientUnits="userSpaceOnUse"
     id="linearGradient37797"
     xlink:href="#linearGradient30849-5"
     inkscape:collect="always" /><linearGradient
     y2="5"
     x2="4"
     y1="8.5"
     x1="10.5"
     gradientTransform="matrix(1.0343407,0,0,1.0343407,0.85402317,0.46125142)"
     gradientUnits="userSpaceOnUse"
     id="linearGradient37797-1"
     xlink:href="#linearGradient30849-5-1"
     inkscape:collect="always" /><linearGradient
     id="linearGradient30849-5-1"><stop
       style="stop-color:#8cbe8c;stop-opacity:1;"
       offset="0"
       id="stop30851-6-2" /><stop
       style="stop-color:#bfdabf;stop-opacity:1;"
       offset="1"
       id="stop30853-5-0" /></linearGradient><linearGradient
     y2="5"
     x2="4"
     y1="7.0743804"
     x1="5.387434"
     gradientTransform="matrix(1.2072936,0,0,1.2072936,2.6147567,-3.7103308)"
     gradientUnits="userSpaceOnUse"
     id="linearGradient37833"
     xlink:href="#linearGradient30849-5-1"
     inkscape:collect="always" /></defs><sodipodi:namedview
   pagecolor="#ffffff"
   bordercolor="#666666"
   borderopacity="1"
   objecttolerance="10"
   gridtolerance="10"
   guidetolerance="10"
   inkscape:pageopacity="0"
   inkscape:pageshadow="2"
   inkscape:window-width="1920"
   inkscape:window-height="1030"
   id="namedview29495"
   showgrid="false"
   inkscape:zoom="27.812867"
   inkscape:cx="7.939055"
   inkscape:cy="12"
   inkscape:window-x="0"
   inkscape:window-y="27"
   inkscape:window-maximized="1"
   inkscape:current-layer="layer4" />
<g
   id="layer8"
   inkscape:groupmode="layer"
   inkscape:label="main">
	<linearGradient
   id="path6995-2_1_"
   gradientUnits="userSpaceOnUse"
   x1="3.0864"
   y1="14.0254"
   x2="20.9115"
   y2="10.8823">
		<stop
   offset="0"
   style="stop-color:#C8E6FA"
   id="stop29453" />
		<stop
   offset="0.2857"
   style="stop-color:#B7DDF6"
   id="stop29455" />
		<stop
   offset="0.8515"
   style="stop-color:#8AC7EB"
   id="stop29457" />
		<stop
   offset="1"
   style="stop-color:#7DC1E8"
   id="stop29459" />
	</linearGradient>
	
		
	
		
	
		
	
		
	
		
	
		
<g
   inkscape:label="1"
   inkscape:groupmode="layer"
   transform="matrix(1.0926289,0,0,1.0926289,-2.2456499,-11.038999)"
   id="layer4"><path
     d="m 4.5,11.5 h 11.999 c 0.553,0 1.001,0.447 1.001,1 v 11.999 c 0,0.553 -0.448,1.001 -1.001,1.001 H 4.5 c -0.552,0 -1,-0.448 -1,-1.001 V 12.5 c 0,-0.552 0.448,-1 1,-1 z"
     id="rect2902-0"
     inkscape:connector-curvature="0"
     style="fill:#fce94f;stroke:#c4a000;stroke-width:1.25;stroke-linecap:round;stroke-linejoin:round;stroke-dasharray:1, 2" /></g><path
   inkscape:export-ydpi="90"
   inkscape:export-xdpi="90"
   inkscape:export-filename="e:\Program Files\QGIS-Dev\themes\gis\path3420.png"
   style="fill:url(#linearGradient37797);fill-opacity:1;fill-rule:evenodd;stroke:#555753;stroke-width:1;stroke-linecap:round;stroke-linejoin:round;stroke-miterlimit:4;stroke-opacity:1;stroke-dasharray:none;display:inline;enable-background:new"
   d="m 1.3686652,5.4483194 c 1.667825,-5.00347088 7.294696,-5.30793758 12.0217188,-3.3445581 5.562073,2.3102183 6.596414,-0.7928041 8.665095,1.2758775 1.139105,1.1391051 1.285274,1.5351641 1.110612,4.0784823 C 21.687589,15.515647 18.7256,9.6783174 14.242349,9.6267904 9.7482522,9.5468104 9.5676462,10.306557 7.5747092,11.654363 2.9257302,14.722416 0.33432417,8.5513414 1.3686652,5.4483194 z"
   id="path3112"
   sodipodi:nodetypes="ssscccs"
   inkscape:connector-curvature="0" /><path
   inkscape:export-ydpi="90"
   inkscape:export-xdpi="90"
   inkscape:export-filename="e:\Program Files\QGIS-Dev\themes\gis\path3420.png"
   style="fill:url(#linearGradient37833);fill-opacity:1;fill-rule:evenodd;stroke:#555753;stroke-width:1;stroke-linecap:round;stroke-linejoin:round;stroke-miterlimit:4;stroke-opacity:1;stroke-dasharray:none;display:inline;enable-background:new"
   d="M 3.6308998,6.0277082 C 4.8060581,2.9176903 8.5757571,1.8855996 10.184717,2.7174017 12.286767,3.8041228 12.661349,6.836757 11.811703,7.8269521 9.8158426,8.203981 10.702804,8.0713076 8.2356575,8.2985636 6.7400578,8.4363271 2.9419502,8.2553038 3.6308998,6.0277082 z"
   id="path3112-1"
   sodipodi:nodetypes="cscsc"
   inkscape:connector-curvature="0" /></g>


<g
   id="g29490">
	<path
   id="rect2730"
   inkscape:export-xdpi="120"
   inkscape:export-ydpi="120"
   fill="#C4A000"
   d="M15.012,13h6.977   C23.1,13,24,13.9,24,15.012v6.977C24,23.1,23.1,24,21.988,24h-6.977C13.9,24,13,23.1,13,21.988v-6.977C13,13.9,13.9,13,15.012,13z" />
	<path
   id="rect3812"
   fill="#FCFFFF"
   d="M18,14v2.062c-0.537,0.111-1.024,0.383-1.375,0.781l-1.781-1.031l-0.5,0.875l1.781,1.031   C16.043,17.967,16,18.225,16,18.5s0.043,0.533,0.125,0.781l-1.781,1.031l0.5,0.875l1.781-1.031c0.353,0.4,0.832,0.67,1.375,0.781   V23h1v-2.062c0.537-0.111,1.024-0.383,1.375-0.781l1.781,1.031l0.5-0.875l-1.781-1.031C20.957,19.033,21,18.775,21,18.5   s-0.043-0.533-0.125-0.781l1.781-1.031l-0.5-0.875l-1.781,1.031c-0.353-0.4-0.832-0.67-1.375-0.781V14H18z M18.5,17.5   c0.552,0,1,0.448,1,1s-0.448,1-1,1s-1-0.448-1-1S17.948,17.5,18.5,17.5z" />
	<path
   id="path4133"
   sodipodi:nodetypes="ccsssc"
   opacity="0.3"
   fill="#FCFFFF"
   enable-background="new    "
   d="M14,19l9-0.01   c0,0,0,0,0-2C23,14,22,14,18.5,14S14,14,14,17C14,19,14,19,14,19z" />
</g></svg>